<?xml version="1.0" encoding="iso-8859-1"?>
<!-- Generator: Adobe Illustrator 19.1.1, SVG Export Plug-In . SVG Version: 6.00 Build 0)  -->
<svg version="1.1" id="Layer_1" xmlns="http://www.w3.org/2000/svg" xmlns:xlink="http://www.w3.org/1999/xlink" x="0px" y="0px"
	 width="200px" height="200px" viewBox="0 0 200 200" style="enable-background:new 0 0 200 200;" xml:space="preserve">
<g>
	<g>
		<g>
			<g style="opacity:0.2;">
				<path style="fill:#84D7FA;" d="M146.705,168.974c0,2.637-2.158,4.795-4.795,4.795H50.159c-2.637,0-4.795-2.158-4.795-4.795
					V43.084c0-2.637,2.158-4.795,4.795-4.795h91.751c2.637,0,4.795,2.158,4.795,4.795V168.974z"/>
			</g>
			<path style="fill:#3A5E6E;" d="M145.266,167.535c0,2.637-2.158,4.795-4.795,4.795H48.721c-2.637,0-4.795-2.158-4.795-4.795
				V41.645c0-2.637,2.158-4.795,4.795-4.795h91.751c2.637,0,4.795,2.158,4.795,4.795V167.535z"/>
			<path style="fill:#FFFFFF;" d="M98.291,169.137c0,0.205-0.166,0.371-0.371,0.371h-6.647c-0.205,0-0.371-0.166-0.371-0.371v-4.321
				c0-0.205,0.166-0.371,0.371-0.371h6.647c0.205,0,0.371,0.166,0.371,0.371V169.137z"/>
			<rect x="50.575" y="44.757" style="fill:#7DCCED;" width="88.044" height="116.879"/>
			<path style="fill:#3A5E6E;" d="M78.316,55.932c-2.615-6.316-9.88-9.327-16.196-6.713c-6.316,2.615-9.328,9.88-6.713,16.196
				c2.615,6.316,9.88,9.328,16.197,6.713C77.919,69.514,80.93,62.248,78.316,55.932z"/>
			<path style="fill:#FFFFFF;" d="M73.732,57.901h-4.098v-4.098c0-1.531-1.242-2.773-2.773-2.773c-1.531,0-2.773,1.242-2.773,2.773
				v4.098H59.99c-1.531,0-2.773,1.242-2.773,2.773c0,1.532,1.242,2.773,2.773,2.773h4.098v4.098c0,1.531,1.242,2.773,2.773,2.773
				c1.532,0,2.773-1.242,2.773-2.773v-4.098h4.098c1.531,0,2.773-1.242,2.773-2.773C76.505,59.143,75.264,57.901,73.732,57.901z"/>
			<rect x="55.086" y="106.971" style="opacity:0.5;fill:#BFEAFC;" width="23.551" height="2.808"/>
			<rect x="55.086" y="113.549" style="opacity:0.5;fill:#BFEAFC;" width="79.292" height="2.808"/>
			<rect x="55.086" y="119.075" style="opacity:0.5;fill:#BFEAFC;" width="79.292" height="2.808"/>
			<rect x="55.086" y="124.602" style="opacity:0.5;fill:#BFEAFC;" width="79.292" height="2.808"/>
			<g style="opacity:0.5;">
				<rect x="115.582" y="58.563" style="fill:#BFEAFC;" width="18.796" height="4.246"/>
				<rect x="104.676" y="65.484" style="fill:#BFEAFC;" width="29.703" height="4.245"/>
			</g>
			<g>
				
					<rect x="100.095" y="134.145" transform="matrix(0.9472 0.3207 -0.3207 0.9472 50.3297 -24.8174)" style="fill:#3A5E6E;" width="0.814" height="12.458"/>
				
					<rect x="103.722" y="134.472" transform="matrix(0.9834 -0.1814 0.1814 0.9834 -24.3893 21.2753)" style="fill:#3A5E6E;" width="0.814" height="19.03"/>
				
					<rect x="114.514" y="136.202" transform="matrix(0.9834 -0.1814 0.1814 0.9834 -24.3659 23.2471)" style="fill:#3A5E6E;" width="0.814" height="17.285"/>
				
					<rect x="106.653" y="139.337" transform="matrix(0.9847 0.1741 -0.1741 0.9847 27.1171 -16.4003)" style="fill:#3A5E6E;" width="0.814" height="14.127"/>
				
					<rect x="117.39" y="139.337" transform="matrix(0.9847 0.1741 -0.1741 0.9847 27.2796 -18.2683)" style="fill:#3A5E6E;" width="0.814" height="14.127"/>
				
					<rect x="109.125" y="139.45" transform="matrix(0.957 -0.29 0.29 0.957 -37.0176 37.9451)" style="fill:#3A5E6E;" width="0.814" height="8.867"/>
				
					<rect x="119.912" y="139.45" transform="matrix(0.957 -0.29 0.29 0.957 -36.554 41.073)" style="fill:#3A5E6E;" width="0.814" height="8.867"/>
				<polygon style="fill:#3A5E6E;" points="112.957,136.419 110.386,147.925 111.165,148.245 113.736,136.739 				"/>
				<rect x="89.266" y="145.611" style="fill:#3A5E6E;" width="9.639" height="0.789"/>
				<rect x="121.271" y="147.456" style="fill:#3A5E6E;" width="9.639" height="0.789"/>
			</g>
			<path style="fill:#3A5E6E;" d="M76.991,135.901c-2.099-1.814-4.856-2.2-7.308-0.896c-0.847,0.451-1.563,1.151-2.405,1.8
				c-0.842-0.649-1.557-1.35-2.405-1.8c-2.452-1.304-5.209-0.918-7.308,0.896c-2.129,1.841-3.027,4.853-2.141,7.374
				c1.542,4.388,8.572,9.895,11.32,10.214c0.159,0.018,0.345,0.038,0.534,0.042c0.189-0.004,0.375-0.023,0.534-0.042
				c2.747-0.319,9.778-5.826,11.32-10.214C80.018,140.754,79.12,137.742,76.991,135.901z"/>
			<g>
				<path style="fill:#FFFFFF;" d="M59.038,101.311c-2.171,0-3.948-1.776-3.948-3.947l-0.004-15.658
					c-0.001-2.171,1.775-3.947,3.946-3.947h15.652c2.171,0,3.948,1.776,3.948,3.947l0.003,15.658c0,2.171-1.775,3.947-3.946,3.947
					H59.038z"/>
				<g>
					<circle style="opacity:0.5;fill:#BFEAFC;" cx="66.861" cy="84.71" r="5.334"/>
					<path style="opacity:0.5;fill:#BFEAFC;" d="M69.75,91.601h-5.779c-2.946,0-5.334,2.388-5.334,5.334v4.445h16.447v-4.445
						C75.084,93.989,72.696,91.601,69.75,91.601z"/>
				</g>
			</g>
			<rect x="82.796" y="77.759" style="opacity:0.5;fill:#FFFFFF;" width="51.582" height="23.552"/>
			<g>
				<path style="opacity:0.2;fill:#8DA2AB;" d="M102.88,57.218h-8.066l0.096-0.542c0.076-0.43-0.211-0.779-0.641-0.779h-7.98
					c-0.125,0-0.249,0.03-0.363,0.083h-2.077c-0.43,0-0.779,0.349-0.779,0.779v1.32v3.229v7.851c0,0.43,0.31,0.779,0.693,0.779
					h16.91c0.274,0,0.51-0.179,0.622-0.437c0.092-0.122,0.159-0.268,0.187-0.424l1.954-11.08
					C103.511,57.566,103.262,57.218,102.88,57.218z"/>
				<path style="fill:#5B95AD;" d="M102.606,57.02h-8.066l0.095-0.542c0.076-0.43-0.211-0.779-0.641-0.779h-7.98
					c-0.43,0-0.84,0.349-0.916,0.779l-0.233,1.32l-0.569,3.229l-1.384,7.851c-0.076,0.43,0.173,0.779,0.556,0.779h16.91
					c0.383,0,0.755-0.349,0.83-0.779l1.954-11.08C103.238,57.369,102.989,57.02,102.606,57.02z"/>
				<g>
					
						<rect x="83.699" y="52.438" transform="matrix(1 0.003 -0.003 1 0.1796 -0.2722)" style="opacity:0.4;fill:#8DA2AB;" width="17.124" height="16.472"/>
					
						<rect x="83.483" y="52.489" transform="matrix(1 0.003 -0.003 1 0.1797 -0.2715)" style="fill:#F6F8F8;" width="17.124" height="16.472"/>
					<g style="opacity:0.2;">
						
							<rect x="85.008" y="53.535" transform="matrix(1 0.0029 -0.0029 1 0.1587 -0.2567)" style="fill:#A9B9C0;" width="4.435" height="0.415"/>
						
							<rect x="85.006" y="54.227" transform="matrix(1 0.003 -0.003 1 0.1611 -0.2727)" style="fill:#A9B9C0;" width="14.839" height="0.415"/>
					</g>
					<g style="opacity:0.2;">
						
							<rect x="85.002" y="55.699" transform="matrix(1 0.0029 -0.0029 1 0.1651 -0.2567)" style="fill:#A9B9C0;" width="4.435" height="0.415"/>
						
							<rect x="85" y="56.391" transform="matrix(1 0.003 -0.003 1 0.1675 -0.2726)" style="fill:#A9B9C0;" width="14.839" height="0.415"/>
					</g>
					
						<rect x="84.997" y="57.381" transform="matrix(1 0.003 -0.003 1 0.1704 -0.2726)" style="opacity:0.2;fill:#A9B9C0;" width="14.839" height="0.415"/>
					
						<rect x="84.993" y="58.526" transform="matrix(1 0.003 -0.003 1 0.1737 -0.2724)" style="opacity:0.2;fill:#A9B9C0;" width="14.839" height="0.415"/>
				</g>
				<path style="fill:#B7D0DB;" d="M100.399,57.103h-8.066v-0.542c0-0.43-0.349-0.779-0.779-0.779h-7.98
					c-0.43,0-0.779,0.349-0.779,0.779v1.32v3.229v7.851c0,0.43,0.31,0.779,0.693,0.779h16.91c0.383,0,0.693-0.349,0.693-0.779
					v-11.08C101.092,57.452,100.782,57.103,100.399,57.103z"/>
			</g>
		</g>
		<g>
			<path style="opacity:0.2;fill:#8DA2AB;" d="M129.785,27.021h37.369c1.651,0,2.99,1.494,2.99,3.336v21.875
				c0,1.843-1.339,3.336-2.99,3.336h-22.188l-7.784,7.801l0.282-7.801h-7.679c-1.651,0-2.99-1.494-2.99-3.336V30.358
				C126.796,28.515,128.134,27.021,129.785,27.021z"/>
			<path style="fill:#5B95AD;" d="M128.996,26.232h37.369c1.651,0,2.99,1.494,2.99,3.336v21.875c0,1.843-1.339,3.336-2.99,3.336
				h-22.188l-7.784,7.801l0.282-7.801h-7.679c-1.651,0-2.99-1.494-2.99-3.336V29.568C126.006,27.726,127.345,26.232,128.996,26.232z
				"/>
			<g>
				<polygon style="opacity:0.5;fill:#FFFFFF;" points="164.147,45.714 161.767,45.714 160.714,31.878 165.227,31.878 				"/>
				<rect x="161.767" y="46.768" style="opacity:0.5;fill:#FFFFFF;" width="2.38" height="2.108"/>
			</g>
		</g>
	</g>
</g>
<rect x="133.23" y="34.174" style="opacity:0.8;fill:#FFFFFF;" width="23.724" height="2.826"/>
<rect x="133.23" y="38.922" style="opacity:0.8;fill:#FFFFFF;" width="23.724" height="2.826"/>
<rect x="133.23" y="43.754" style="opacity:0.8;fill:#FFFFFF;" width="23.724" height="2.826"/>
</svg>
