<?xml version="1.0" encoding="iso-8859-1"?>
<!-- Generator: Adobe Illustrator 19.1.1, SVG Export Plug-In . SVG Version: 6.00 Build 0)  -->
<svg version="1.1" id="Layer_1" xmlns="http://www.w3.org/2000/svg" xmlns:xlink="http://www.w3.org/1999/xlink" x="0px" y="0px"
	 width="200px" height="200px" viewBox="0 0 200 200" style="enable-background:new 0 0 200 200;" xml:space="preserve">
<polygon style="fill-rule:evenodd;clip-rule:evenodd;fill:#7DCCED;" points="87.222,141.485 92.898,141.485 92.898,165.855 
	87.222,165.855 87.222,141.485 "/>
<polygon style="fill-rule:evenodd;clip-rule:evenodd;fill:#5B95AD;" points="92.898,141.485 98.57,141.485 98.57,165.855 
	92.898,165.855 92.898,141.485 "/>
<polygon style="fill-rule:evenodd;clip-rule:evenodd;fill:#3A5E6E;" points="46.806,141.485 138.991,141.485 115.944,113.581 
	132.017,113.581 108.971,85.677 125.042,85.677 101.996,57.772 118.068,57.772 92.898,27.297 67.729,57.772 83.801,57.772 
	60.755,85.677 76.826,85.677 53.78,113.581 69.852,113.581 46.806,141.485 "/>
<polygon style="fill-rule:evenodd;clip-rule:evenodd;fill:#98ABB3;" points="92.898,141.485 138.991,141.485 115.944,113.581 
	132.017,113.581 108.971,85.677 125.042,85.677 101.996,57.772 118.068,57.772 92.898,27.297 92.898,141.485 "/>
<polygon style="fill-rule:evenodd;clip-rule:evenodd;fill:#7DCCED;" points="129.4,98.253 132.644,98.253 132.644,159.476 
	129.4,159.476 129.4,98.253 "/>
<polygon style="fill-rule:evenodd;clip-rule:evenodd;fill:#5B95AD;" points="132.644,98.253 135.885,98.253 135.885,159.476 
	132.644,159.476 132.644,98.253 "/>
<path style="fill-rule:evenodd;clip-rule:evenodd;fill:#84D7FA;" d="M101.391,98.254c0,17.496,13.68,31.676,31.68,31.676V98.253
	V66.577C115.071,66.577,101.391,80.761,101.391,98.254z"/>
<path style="fill-rule:evenodd;clip-rule:evenodd;fill:#3A5E6E;" d="M133.071,66.577v31.676v31.677c17,0,31.677-14.18,31.677-31.676
	C164.748,80.761,150.071,66.577,133.071,66.577z"/>
<path style="fill-rule:evenodd;clip-rule:evenodd;fill:#3A5E6E;" d="M112.669,98.254c0,11.267,8.402,20.402,20.402,20.402V98.253
	V77.851C121.071,77.851,112.669,86.988,112.669,98.254z"/>
<path style="fill-rule:evenodd;clip-rule:evenodd;fill:#98ABB3;" d="M153.043,98c0-11-8.972-20.145-19.972-20.145v20.399v20.403
	c11,0,19.978-8.656,19.978-20.656H153.043z"/>
<path style="fill-rule:evenodd;clip-rule:evenodd;fill:#3A5E6E;" d="M144.698,140.086c14.232,0,25.769,11.539,25.769,25.769
	l-25.769-0.001V140.086L144.698,140.086z"/>
<path style="fill-rule:evenodd;clip-rule:evenodd;fill:#84D7FA;" d="M144.698,140.086c-14.233,0-25.771,11.539-25.771,25.769
	l25.771-0.001V140.086L144.698,140.086z"/>
<path style="fill-rule:evenodd;clip-rule:evenodd;fill:#98ABB3;" d="M144.698,149.26c9.167,0,16.594,7.432,16.594,16.595
	l-16.594-0.001V149.26L144.698,149.26z"/>
<path style="fill-rule:evenodd;clip-rule:evenodd;fill:#3A5E6E;" d="M144.698,149.26c-9.166,0-16.596,7.432-16.596,16.598
	l16.596-0.001V149.26L144.698,149.26z"/>
<path style="fill-rule:evenodd;clip-rule:evenodd;fill:#DCF4FD;" d="M118.929,150.157c-8.671,0-15.7,7.029-15.7,15.698l15.7-0.001
	V150.157L118.929,150.157z"/>
<path style="fill-rule:evenodd;clip-rule:evenodd;fill:#CDEFFD;" d="M118.929,150.157c8.67,0,15.698,7.029,15.698,15.698
	l-15.698-0.001V150.157L118.929,150.157z"/>
<path style="fill-rule:evenodd;clip-rule:evenodd;fill:#BFEAFC;" d="M118.929,155.745c5.585,0,10.109,4.528,10.109,10.11
	l-10.109-0.001V155.745L118.929,155.745z"/>
<path style="fill-rule:evenodd;clip-rule:evenodd;fill:#CDEFFD;" d="M118.929,155.744c-5.584,0-10.111,4.528-10.111,10.111
	l10.111-0.001V155.744L118.929,155.744z"/>
<path style="fill-rule:evenodd;clip-rule:evenodd;fill:#98ABB3;" d="M69.84,144.792c11.634,0,21.064,9.432,21.064,21.064
	l-21.064-0.001V144.792L69.84,144.792z"/>
<path style="fill-rule:evenodd;clip-rule:evenodd;fill:#3A5E6E;" d="M69.84,144.792c-11.634,0-21.066,9.432-21.066,21.064
	l21.066-0.001V144.792L69.84,144.792z"/>
<path style="fill-rule:evenodd;clip-rule:evenodd;fill:#8DA2AB;" d="M69.84,152.291c7.494,0,13.565,6.075,13.565,13.565
	l-13.565-0.001V152.291L69.84,152.291z"/>
<path style="fill-rule:evenodd;clip-rule:evenodd;fill:#98ABB3;" d="M69.84,152.291c-7.492,0-13.566,6.075-13.566,13.567
	l13.566-0.001V152.291L69.84,152.291z"/>
<path style="fill-rule:evenodd;clip-rule:evenodd;fill:#84D7FA;" d="M48.776,153.024c-7.088,0-12.833,5.746-12.833,12.832l12.833,0
	V153.024L48.776,153.024z"/>
<path style="fill-rule:evenodd;clip-rule:evenodd;fill:#3A5E6E;" d="M48.776,153.024c7.087,0,12.832,5.746,12.832,12.832l-12.832,0
	V153.024L48.776,153.024z"/>
<path style="fill-rule:evenodd;clip-rule:evenodd;fill:#98ABB3;" d="M48.776,157.592c4.565,0,8.264,3.701,8.264,8.264l-8.264,0
	V157.592L48.776,157.592z"/>
<path style="fill-rule:evenodd;clip-rule:evenodd;fill:#3A5E6E;" d="M48.776,157.591c-4.564,0-8.265,3.701-8.265,8.265l8.265,0
	V157.591L48.776,157.591z"/>
</svg>
