<?xml version="1.0" encoding="iso-8859-1"?>
<!-- Generator: Adobe Illustrator 19.1.1, SVG Export Plug-In . SVG Version: 6.00 Build 0)  -->
<svg version="1.1" id="Layer_1" xmlns="http://www.w3.org/2000/svg" xmlns:xlink="http://www.w3.org/1999/xlink" x="0px" y="0px"
	 width="200px" height="200px" viewBox="0 0 200 200" style="enable-background:new 0 0 200 200;" xml:space="preserve">
<g>
	<g>
		<g>
			<g>
				<g>
					<g>
						<g>
							<g>
								<g>
									<g>
										<g>
											<g>
												<g>
													<g>
														<g>
															<path style="fill:#4A6B7A;" d="M168.634,110.509c0,36.863-29.881,66.743-66.741,66.743
																c-36.871,0-66.752-29.881-66.752-66.743c0-36.861,29.881-66.74,66.752-66.74
																C138.753,43.769,168.634,73.648,168.634,110.509z"/>
														</g>
													</g>
												</g>
											</g>
										</g>
									</g>
								</g>
							</g>
						</g>
					</g>
				</g>
				<g>
					<g>
						<g>
							<g>
								<g>
									<g>
										<g>
											<g>
												<g>
													<g>
														<g>
															<path style="fill:#4A6B7A;" d="M168.634,110.509c0,36.863-29.881,66.743-66.741,66.743
																c-36.871,0-66.752-29.881-66.752-66.743c0-36.861,29.881-66.74,66.752-66.74
																C138.753,43.769,168.634,73.648,168.634,110.509z"/>
														</g>
													</g>
												</g>
											</g>
										</g>
									</g>
								</g>
							</g>
						</g>
					</g>
				</g>
				<g>
					<g>
						<g>
							<g>
								<g>
									<g>
										<g>
											<g>
												<g>
													<g>
														<g>
															<path style="fill:#3A5E6E;" d="M168.634,110.509c0,36.863-29.881,66.743-66.741,66.743
																c-36.871,0-66.752-29.881-66.752-66.743c0-36.861,29.881-66.74,66.752-66.74
																C138.753,43.769,168.634,73.648,168.634,110.509z"/>
														</g>
													</g>
												</g>
											</g>
										</g>
									</g>
								</g>
							</g>
						</g>
					</g>
				</g>
				<g>
					<g>
						<g>
							<g>
								<g>
									<g>
										<g>
											<g>
												<g>
													<g>
														<g>
															<path style="fill:#84D7FA;" d="M97.392,100.275c-0.849,5.47-9.689,5.052-11.793,10.105
																c-1.686,4.633,1.686,10.113,5.056,12.636c9.263,5.894,17.258,1.267,17.258,16.005c0,7.577-6.732,22.736,2.953,26.521
																c8.003,2.951,21.478-9.261,25.268-13.893c2.945-4.211,3.786-6.74,7.999-10.108c5.054-4.211,6.74-4.63,1.264-8.42
																c-4.209-2.948-7.158-1.687-8.844-7.581c-0.845-2.949,2.104-7.578,1.267-10.945
																c-1.267-8.003-11.371-9.268-18.533-12.639c-7.58-3.366-12.211-3.366-20.214-3.366L97.392,100.275z"/>
														</g>
													</g>
												</g>
											</g>
										</g>
									</g>
								</g>
							</g>
						</g>
					</g>
				</g>
				<g>
					<g>
						<g>
							<g>
								<g>
									<g>
										<g>
											<g>
												<g>
													<g>
														<g>
															<path style="fill:#84D7FA;" d="M146.807,61.131c-4.615,2.391-11.812,3.462-15.744,4.772
																c-10.953,4.216-5.057,3.791-5.896,13.057c2.946,0.839,5.474-0.42,7.159-2.951c2.949,8.428-7.577,6.739-11.366,6.739
																c-2.112,0-3.795-0.842-5.902,0c-3.368,1.689,0.848,7.58-3.787,3.369c-2.108-1.262-0.421-5.052-3.371-7.158
																c-1.261-0.841-8-1.265-9.266-0.42c-5.05,3.367,1.686,8.84,5.48,11.789c2.945,2.527,1.683,3.369,6.316,4.216
																c2.52,0.416,5.05-1.689,7.581-0.847c5.049,1.263,7.157,6.318,12.63,8.005c6.736,2.103,10.104,1.683,13.056,8.425
																c1.683,4.206,2.107,8.837,4.632,13.474c4.209,6.312,9.685,10.521,13.894,2.522c1.85-4.069,0.783-8.46,5.937-7.747
																c0.3-2.582,0.475-5.206,0.475-7.867C168.634,90.942,160.221,73.341,146.807,61.131z"/>
														</g>
													</g>
												</g>
											</g>
										</g>
									</g>
								</g>
							</g>
						</g>
					</g>
				</g>
				<g>
					<g>
						<g>
							<g>
								<g>
									<g>
										<g>
											<g>
												<g>
													<g>
														<g>
															<path style="fill:#84D7FA;" d="M63.58,141.507c-1.264-1.262-2.101-6.738-3.364-8.418
																c-0.423-1.262-2.527-1.262-3.368-2.11c-0.848-1.26,0.419-3.791-1.27-4.632c-2.519-1.685-5.05-0.839-7.573-1.685
																c-4.216-1.262-2.109,0.426-5.476-3.367c-2.534-2.532-4.324-7.503-7.369-10.024
																c0.251,21.93,11.071,41.31,27.605,53.296c2.076-2.426,4.599-4.605,7.133-6.635c3.79-3.366,10.111-3.788,7.161-10.107
																C74.532,141.085,66.955,144.459,63.58,141.507z"/>
														</g>
													</g>
												</g>
											</g>
										</g>
									</g>
								</g>
							</g>
						</g>
					</g>
				</g>
				<g>
					<g>
						<g>
							<g>
								<g>
									<g>
										<g>
											<g>
												<g>
													<g>
														<g>
															<path style="fill:#84D7FA;" d="M63.666,73.382c-4.077-3.05-7.533-6.238-11.675-7.184
																c-8.614,9.694-14.441,21.908-16.241,35.407c3.816-0.021,2.37,7.087,7.702,4.629c1.267-0.427,4.209-6.739,5.475-8.428
																c2.528-2.521,18.529-8.418,11.371-12.209c0.842-1.266,1.686-1.686,3.368-2.108c0.841,2.53,2.105,4.214,4.632,4.631
																C69.983,80.54,69.983,77.598,63.666,73.382z"/>
														</g>
													</g>
												</g>
											</g>
										</g>
									</g>
								</g>
							</g>
						</g>
					</g>
				</g>
				<g>
					<g>
						<g>
							<g>
								<g>
									<g>
										<g>
											<g>
												<g>
													<g>
														<g>
															<path style="fill:#94DCFB;" d="M60.28,65.881c0.845,0,7.158-5.891,7.158-6.309c0-2.123-1.134-3.595-2.772-4.471
																c-3.393,2.281-6.557,4.878-9.468,7.733C56.802,64.254,57.929,65.881,60.28,65.881z"/>
														</g>
													</g>
												</g>
											</g>
										</g>
									</g>
								</g>
							</g>
						</g>
					</g>
				</g>
				<g>
					<g>
						<g>
							<g>
								<g>
									<g>
										<g>
											<g>
												<g>
													<g>
														<g>
															<path style="fill:#84D7FA;" d="M100.487,43.798c-8.793,0.182-17.176,2.047-24.82,5.317
																c0.594,0.371,1.181,0.737,1.776,1.037c-2.846,4.741-4.424,5.684-1.267,11.371c2.216,4.734,5.683,4.099,9.792,7.889
																c3.161-3.476,0.63-4.739,1.575-7.889c0.638-3.166,3.48-4.739,6.32-6.007c4.42-1.888,12.316,0.319,11.37-6.31
																C104.929,46.908,103.115,45.099,100.487,43.798z"/>
														</g>
													</g>
												</g>
											</g>
										</g>
									</g>
								</g>
							</g>
						</g>
					</g>
				</g>
				<g>
					<g>
						<g>
							<g>
								<g>
									<g>
										<g>
											<g>
												<g>
													<g>
														<g>
															<path style="fill:#84D7FA;" d="M96.47,58.825c3.476-0.633,3.79,2.842,7.266,1.894
																c2.212,5.685-11.686,4.424-7.266-1.582V58.825z"/>
														</g>
													</g>
												</g>
											</g>
										</g>
									</g>
								</g>
							</g>
						</g>
					</g>
				</g>
			</g>
		</g>
		<g style="opacity:0.2;">
			<g>
				<g>
					<g>
						<path d="M132.185,88.916c-10.009,0-18.125,8.113-18.125,18.123c0,10.01,15.945,27.694,18.125,27.825
							c2.18,0.129,18.125-17.815,18.125-27.825C150.31,97.029,142.195,88.916,132.185,88.916z M132.185,115.991
							c-4.943,0-8.95-4.01-8.95-8.952c0-4.942,4.008-8.95,8.95-8.95c4.943,0,8.95,4.009,8.95,8.95
							C141.136,111.981,137.128,115.991,132.185,115.991z"/>
					</g>
				</g>
			</g>
		</g>
		<path style="opacity:0.15;" d="M136.989,53.735c-1.269,2.311-3.724,3.88-6.546,3.88c-4.122,0-7.464-3.344-7.464-7.465
			c0-0.989,0.197-1.931,0.546-2.795c-2.406-0.824-4.874-1.512-7.395-2.059c-0.517,1.524-0.801,3.155-0.801,4.854
			c0,8.347,13.296,23.094,15.114,23.203c1.323,0.078,8.721-7.825,12.653-15.351C141.146,56.469,139.106,55.047,136.989,53.735z"/>
		<path style="opacity:0.1;" d="M72.602,50.523c-1.778,3.332-5.287,5.602-9.327,5.602c-0.028,0-0.055-0.002-0.083-0.002
			c-4.217,3.005-8.067,6.49-11.476,10.372c4.997,6.649,10.281,11.835,11.559,11.912c2.54,0.151,20.915-20.491,21.387-32.39
			C80.466,47.135,76.431,48.651,72.602,50.523z"/>
	</g>
	<g>
		<g>
			<g>
				<g>
					<g>
						<path style="fill:#FFFFFF;" d="M130.774,87.504c-10.009,0-18.125,8.113-18.125,18.123c0,10.01,15.945,27.694,18.125,27.825
							c2.18,0.129,18.125-17.815,18.125-27.825C148.899,95.618,140.783,87.504,130.774,87.504z M130.774,114.58
							c-4.943,0-8.95-4.01-8.95-8.952c0-4.942,4.008-8.95,8.95-8.95c4.943,0,8.95,4.009,8.95,8.95
							C139.724,110.569,135.716,114.58,130.774,114.58z"/>
					</g>
				</g>
			</g>
		</g>
	</g>
	<g>
		<g>
			<g>
				<g>
					<path style="fill:#7DCCED;" d="M129.032,33.626c-8.347,0-15.114,6.765-15.114,15.113c0,8.347,13.296,23.094,15.114,23.203
						c1.817,0.108,15.114-14.856,15.114-23.203C144.146,40.391,137.378,33.626,129.032,33.626z M129.032,56.203
						c-4.122,0-7.463-3.344-7.463-7.465c0-4.121,3.342-7.463,7.463-7.463c4.121,0,7.463,3.343,7.463,7.463
						C136.495,52.859,133.153,56.203,129.032,56.203z"/>
				</g>
			</g>
		</g>
	</g>
	<g>
		<g>
			<g>
				<g>
					<path style="fill:#8DA2AB;" d="M61.864,22.748c-11.817,0-21.398,9.579-21.398,21.397S59.29,76.84,61.864,76.995
						c2.573,0.153,21.399-21.033,21.399-32.851S73.681,22.748,61.864,22.748z M61.864,54.713c-5.835,0-10.567-4.735-10.567-10.569
						c0-5.834,4.732-10.567,10.567-10.567S72.43,38.31,72.43,44.144C72.43,49.978,67.699,54.713,61.864,54.713z"/>
				</g>
			</g>
		</g>
	</g>
</g>
</svg>
